<svg width="32" height="32" viewBox="0 0 32 32" fill="none" xmlns="http://www.w3.org/2000/svg">
<rect width="32" height="32" rx="8" fill="#F21C1C" fill-opacity="0.1"/>
<path d="M22.104 13.8896C22.104 13.8896 21.6515 19.5021 21.389 21.8663C21.264 22.9955 20.5665 23.6571 19.424 23.678C17.2499 23.7171 15.0732 23.7196 12.8999 23.6738C11.8007 23.6513 11.1149 22.9813 10.9924 21.8721C10.7282 19.4871 10.2782 13.8896 10.2782 13.8896" stroke="#F21C1C" stroke-width="1.5" stroke-linecap="round" stroke-linejoin="round"/>
<path d="M23.2568 11.1999H9.12512" stroke="#F21C1C" stroke-width="1.5" stroke-linecap="round" stroke-linejoin="round"/>
<path d="M20.5337 11.1995C19.8796 11.1995 19.3162 10.737 19.1879 10.0962L18.9854 9.08283C18.8604 8.61533 18.4371 8.29199 17.9546 8.29199H14.4271C13.9446 8.29199 13.5212 8.61533 13.3962 9.08283L13.1937 10.0962C13.0654 10.737 12.5021 11.1995 11.8479 11.1995" stroke="#F21C1C" stroke-width="1.5" stroke-linecap="round" stroke-linejoin="round"/>
</svg>
