<svg width="32" height="32" viewBox="0 0 32 32" fill="none" xmlns="http://www.w3.org/2000/svg">
<rect width="32" height="32" rx="8" fill="#062A41" fill-opacity="0.1"/>
<path d="M15.5769 8.32422H12.461C9.89854 8.32422 8.29187 10.1384 8.29187 12.7067V19.6351C8.29187 22.2034 9.89104 24.0176 12.461 24.0176H19.8144C22.3852 24.0176 23.9844 22.2034 23.9844 19.6351V16.2784" stroke="#05253A" stroke-width="1.5" stroke-linecap="round" stroke-linejoin="round"/>
<path fill-rule="evenodd" clip-rule="evenodd" d="M13.3564 15.1007L19.5839 8.87324C20.3597 8.09824 21.6172 8.09824 22.3931 8.87324L23.4072 9.88741C24.1831 10.6632 24.1831 11.9216 23.4072 12.6966L17.1497 18.9541C16.8106 19.2932 16.3506 19.4841 15.8706 19.4841H12.7489L12.8272 16.3341C12.8389 15.8707 13.0281 15.4291 13.3564 15.1007Z" stroke="#05253A" stroke-width="1.5" stroke-linecap="round" stroke-linejoin="round"/>
<path d="M18.6376 9.83496L22.4426 13.64" stroke="#05253A" stroke-width="1.5" stroke-linecap="round" stroke-linejoin="round"/>
</svg>
